<svg width="1280" height="640" viewBox="0 0 1280 640" xmlns="http://www.w3.org/2000/svg">
  <defs>
    <linearGradient id="titleMetal" x1="0" y1="0" x2="1" y2="1">
      <stop offset="0" stop-color="#ffffff"/>
      <stop offset="0.52" stop-color="#dbeafe"/>
      <stop offset="1" stop-color="#64748b"/>
    </linearGradient>
    <linearGradient id="blueLine" x1="0" y1="0" x2="1" y2="0">
      <stop offset="0" stop-color="#2563eb"/>
      <stop offset="0.55" stop-color="#60a5fa"/>
      <stop offset="1" stop-color="#2563eb" stop-opacity="0"/>
    </linearGradient>
    <filter id="blueGlow" x="-30%" y="-30%" width="160%" height="160%">
      <feGaussianBlur stdDeviation="8" result="blur"/>
      <feMerge>
        <feMergeNode in="blur"/>
        <feMergeNode in="SourceGraphic"/>
      </feMerge>
    </filter>
  </defs>

  <rect x="64" y="58" width="660" height="524" rx="28" fill="#02050b" fill-opacity="0.24" stroke="#2563eb" stroke-opacity="0.16"/>
  <path d="M64 118V86Q64 58 92 58H160" fill="none" stroke="#f59e0b" stroke-width="2" stroke-opacity="0.7"/>
  <path d="M64 522V554Q64 582 92 582H214" fill="none" stroke="#2563eb" stroke-width="2" stroke-opacity="0.8"/>

  <rect x="94" y="96" width="58" height="2" fill="#3b82f6"/>
  <text x="168" y="104" fill="#60a5fa" font-family="DejaVu Sans, sans-serif" font-size="14" font-weight="700" letter-spacing="5">
    FULL-STACK DEVELOPER
  </text>

  <text x="92" y="230" fill="url(#titleMetal)" font-family="DejaVu Sans, sans-serif" font-size="82" font-weight="900" letter-spacing="-3">
    FARHAN
  </text>
  <text x="88" y="312" fill="#3b82f6" font-family="DejaVu Sans, sans-serif" font-size="76" font-weight="900" letter-spacing="-4" filter="url(#blueGlow)">
    ZULKARNAIN.
  </text>

  <text x="94" y="365" fill="#94a3b8" font-family="DejaVu Sans, sans-serif" font-size="18" font-weight="400" letter-spacing="0.5">
    Building polished interfaces and dependable systems.
  </text>

  <g font-family="DejaVu Sans, sans-serif" font-size="12" font-weight="700" letter-spacing="1.4">
    <rect x="94" y="402" width="112" height="34" rx="17" fill="#071426" stroke="#2563eb" stroke-opacity="0.65"/>
    <text x="121" y="423" fill="#bfdbfe">NEXT.JS</text>
    <rect x="218" y="402" width="142" height="34" rx="17" fill="#071426" stroke="#2563eb" stroke-opacity="0.65"/>
    <text x="240" y="423" fill="#bfdbfe">TYPESCRIPT</text>
    <rect x="372" y="402" width="116" height="34" rx="17" fill="#071426" stroke="#f59e0b" stroke-opacity="0.55"/>
    <text x="396" y="423" fill="#fde68a">NODE.JS</text>
  </g>

  <rect x="94" y="480" width="482" height="1" fill="url(#blueLine)"/>
  <text x="94" y="520" fill="#ffffff" font-family="DejaVu Sans Mono, monospace" font-size="17" font-weight="700" letter-spacing="1.5">
    farhanzulkarnainhrp.com
  </text>
  <text x="94" y="552" fill="#64748b" font-family="DejaVu Sans, sans-serif" font-size="11" font-weight="700" letter-spacing="3">
    PORTFOLIO / 2026
  </text>

  <path d="M760 92H790V62" fill="none" stroke="#f59e0b" stroke-width="2" stroke-opacity="0.75"/>
  <path d="M760 548H790V578" fill="none" stroke="#3b82f6" stroke-width="2" stroke-opacity="0.85"/>
</svg>
